# Blender v2.76 (sub 0) OBJ File: 'sILVERcOIN.blend'
# www.blender.org
mtllib sILVERcOIN.mtl
o Cylinder
v 0.000000 -0.109871 -2.048815
v 0.000000 0.109871 -2.048815
v 0.665249 -0.109871 -1.937805
v 0.665249 0.109871 -1.937805
v 1.258408 -0.109871 -1.616803
v 1.258408 0.109871 -1.616803
v 1.715199 -0.109871 -1.120596
v 1.715199 0.109871 -1.120596
v 1.986122 -0.109871 -0.502954
v 1.986122 0.109871 -0.502954
v 2.041817 -0.109871 0.169190
v 2.041817 0.109871 0.169190
v 1.876251 -0.109871 0.823000
v 1.876251 0.109871 0.823000
v 1.507362 -0.109871 1.387625
v 1.507362 0.109871 1.387625
v 0.975128 -0.109871 1.801879
v 0.975128 0.109871 1.801879
v 0.337224 -0.109871 2.020872
v 0.337224 0.109871 2.020872
v -0.337224 -0.109871 2.020872
v -0.337224 0.109871 2.020872
v -0.975128 -0.109871 1.801879
v -0.975128 0.109871 1.801879
v -1.507362 -0.109871 1.387625
v -1.507362 0.109871 1.387625
v -1.876250 -0.109871 0.822999
v -1.876250 0.109871 0.822999
v -2.041817 -0.109871 0.169189
v -2.041817 0.109871 0.169189
v -1.986121 -0.109871 -0.502956
v -1.986121 0.109871 -0.502956
v -1.715198 -0.109871 -1.120597
v -1.715198 0.109871 -1.120597
v -1.258406 -0.109871 -1.616804
v -1.258406 0.109871 -1.616804
v -0.665246 -0.109871 -1.937806
v -0.665246 0.109871 -1.937806
vt 0.092466 0.866584
vt 0.305030 0.041794
vt 0.478836 0.510705
vt 0.890842 0.895533
vt 0.513448 0.623476
vt 0.857891 0.060523
vt 0.466355 0.667767
vt 0.430264 0.807808
vt 0.374473 0.915654
vt 0.305030 0.979616
vt 0.229459 0.992766
vt 0.155949 0.953677
vt 0.045890 0.740927
vt 0.045890 0.280483
vt 0.021268 0.590322
vt 0.021268 0.431089
vt 0.092466 0.154826
vt 0.155949 0.067734
vt 0.229459 0.028645
vt 0.374473 0.105757
vt 0.430264 0.213602
vt 0.466355 0.353644
vt 0.705243 0.007035
vt 0.783692 0.007035
vt 0.631044 0.060523
vt 0.919800 0.161705
vt 0.962707 0.299614
vt 0.981965 0.459306
vt 0.975487 0.623477
vt 0.943975 0.774335
vt 0.821847 0.973938
vt 0.744468 1.001052
vt 0.667088 0.973938
vt 0.598093 0.895533
vt 0.544960 0.774335
vt 0.506970 0.459306
vt 0.526228 0.299614
vt 0.569136 0.161705
vt 0.366315 0.358841
vt 0.366315 0.706198
vt 0.407428 0.706198
vt 0.366315 0.619359
vt 0.407428 0.619359
vt 0.366315 0.532520
vt 0.407428 0.532520
vt 0.366315 0.445681
vt 0.407428 0.445681
vt 0.407428 0.358841
vn 0.000000 1.000000 0.000000
vn 0.000000 -1.000000 0.000000
vn 0.000000 0.671900 -0.740700
vn 0.240500 0.671900 -0.700500
vn 0.240500 -0.671900 -0.700500
vn 0.454900 0.671900 -0.584500
vn 0.454900 -0.671900 -0.584500
vn 0.620000 0.671900 -0.405100
vn 0.620000 -0.671900 -0.405100
vn 0.718000 0.671900 -0.181800
vn 0.718000 -0.671900 -0.181800
vn 0.738100 0.671900 0.061200
vn 0.738100 -0.671900 0.061200
vn 0.678300 0.671900 0.297500
vn 0.678300 -0.671900 0.297500
vn 0.544900 0.671900 0.501600
vn 0.544900 -0.671900 0.501600
vn 0.352500 0.671900 0.651400
vn 0.352500 -0.671900 0.651400
vn 0.121900 0.671900 0.730600
vn 0.121900 -0.671900 0.730600
vn -0.121900 0.671900 0.730600
vn -0.121900 -0.671900 0.730600
vn -0.352500 0.671900 0.651400
vn -0.352500 -0.671900 0.651400
vn -0.544900 0.671900 0.501600
vn -0.544900 -0.671900 0.501600
vn -0.678300 0.671900 0.297500
vn -0.678300 -0.671900 0.297500
vn -0.738100 0.671900 0.061200
vn -0.738100 -0.671900 0.061200
vn -0.718000 0.671900 -0.181800
vn -0.718000 -0.671900 -0.181800
vn -0.620000 0.671900 -0.405100
vn -0.620000 -0.671900 -0.405100
vn -0.454900 0.671900 -0.584500
vn -0.454900 -0.671900 -0.584500
vn -0.240500 0.671900 -0.700500
vn 0.000000 -0.671900 -0.740700
vn -0.240500 -0.671900 -0.700500
usemtl Material.001
s off
f 32/1/1 16/2/1 8/3/1
f 15/4/2 27/5/2 3/6/2
f 6/7/1 4/8/1 2/9/1
f 2/9/1 38/10/1 36/11/1
f 36/11/1 34/12/1 32/1/1
f 32/1/1 30/13/1 24/14/1
f 28/15/1 26/16/1 24/14/1
f 24/14/1 22/17/1 20/18/1
f 20/18/1 18/19/1 24/14/1
f 16/2/1 14/20/1 12/21/1
f 12/21/1 10/22/1 8/3/1
f 8/3/1 6/7/1 2/9/1
f 2/9/1 36/11/1 8/3/1
f 30/13/1 28/15/1 24/14/1
f 24/14/1 18/19/1 16/2/1
f 16/2/1 12/21/1 8/3/1
f 8/3/1 36/11/1 32/1/1
f 32/1/1 24/14/1 16/2/1
f 37/23/2 1/24/2 35/25/2
f 3/6/2 5/26/2 7/27/2
f 7/27/2 9/28/2 11/29/2
f 11/29/2 13/30/2 15/4/2
f 15/4/2 17/31/2 19/32/2
f 19/32/2 21/33/2 23/34/2
f 23/34/2 25/35/2 27/5/2
f 27/5/2 29/36/2 35/25/2
f 31/37/2 33/38/2 35/25/2
f 35/25/2 1/24/2 3/6/2
f 3/6/2 7/27/2 11/29/2
f 11/29/2 15/4/2 3/6/2
f 19/32/2 23/34/2 27/5/2
f 29/36/2 31/37/2 35/25/2
f 35/25/2 3/6/2 27/5/2
f 15/4/2 19/32/2 27/5/2
s 1
f 2/39/3 4/40/4 3/41/5
f 4/40/4 6/42/6 5/43/7
f 6/42/6 8/44/8 7/45/9
f 8/44/8 10/46/10 9/47/11
f 10/46/10 12/39/12 11/48/13
f 12/39/12 14/40/14 13/41/15
f 14/40/14 16/42/16 15/43/17
f 16/42/16 18/44/18 17/45/19
f 18/44/18 20/46/20 19/47/21
f 20/46/20 22/39/22 21/48/23
f 22/40/22 24/42/24 23/43/25
f 24/42/24 26/44/26 25/45/27
f 26/44/26 28/46/28 27/47/29
f 28/46/28 30/39/30 29/48/31
f 30/39/30 32/40/32 31/41/33
f 32/40/32 34/42/34 33/43/35
f 34/42/34 36/44/36 35/45/37
f 38/46/38 2/39/3 1/48/39
f 36/44/36 38/46/38 37/47/40
f 1/48/39 2/39/3 3/41/5
f 3/41/5 4/40/4 5/43/7
f 5/43/7 6/42/6 7/45/9
f 7/45/9 8/44/8 9/47/11
f 9/47/11 10/46/10 11/48/13
f 11/48/13 12/39/12 13/41/15
f 13/41/15 14/40/14 15/43/17
f 15/43/17 16/42/16 17/45/19
f 17/45/19 18/44/18 19/47/21
f 19/47/21 20/46/20 21/48/23
f 21/41/23 22/40/22 23/43/25
f 23/43/25 24/42/24 25/45/27
f 25/45/27 26/44/26 27/47/29
f 27/47/29 28/46/28 29/48/31
f 29/48/31 30/39/30 31/41/33
f 31/41/33 32/40/32 33/43/35
f 33/43/35 34/42/34 35/45/37
f 37/47/40 38/46/38 1/48/39
f 35/45/37 36/44/36 37/47/40